<?xml version="1.0" encoding="UTF-8"?>
<svg id="Capa_1" data-name="Capa 1" xmlns="http://www.w3.org/2000/svg" xmlns:xlink="http://www.w3.org/1999/xlink" viewBox="0 0 20 20.02">
  <defs>
    <style>
      .cls-1 {
        fill: none;
      }

      .cls-1, .cls-2 {
        stroke-width: 0px;
      }

      .cls-2 {
        fill: url(#Degradado_sin_nombre_2);
      }
    </style>
    <clipPath id="clippath">
      <rect class="cls-1" x="544.59" y="-1454.38" width="1920" height="1080"/>
    </clipPath>
    <clipPath id="clippath-1">
      <rect class="cls-1" x="544.59" y="-319.38" width="1920" height="1080"/>
    </clipPath>
    <linearGradient id="Degradado_sin_nombre_2" data-name="Degradado sin nombre 2" x1="0" y1="10.01" x2="20" y2="10.01" gradientUnits="userSpaceOnUse">
      <stop offset="0" stop-color="#00a2e1"/>
      <stop offset=".13" stop-color="#04a3dd"/>
      <stop offset=".27" stop-color="#10a6d1"/>
      <stop offset=".4" stop-color="#24abbc"/>
      <stop offset=".53" stop-color="#40b2a0"/>
      <stop offset=".67" stop-color="#64bc7c"/>
      <stop offset=".8" stop-color="#91c750"/>
      <stop offset=".93" stop-color="#c4d51c"/>
      <stop offset="1" stop-color="#e2dd00"/>
    </linearGradient>
  </defs>
  <polygon class="cls-2" points="19.09 14.29 13.87 13.22 16.08 18.07 11.95 14.69 11.66 20.02 9.57 15.11 6.84 19.69 7.27 14.37 2.72 17.16 5.58 12.65 .25 13 4.88 10.34 0 8.18 5.33 7.97 2.02 3.78 6.83 6.08 5.84 .83 9.05 5.1 10.61 0 11.46 5.27 15.21 1.47 13.51 6.53 18.6 4.92 14.75 8.61 20 9.54 14.88 11.02 19.09 14.29"/>
</svg>